<svg width="53" height="53" viewBox="0 0 53 53" fill="none" xmlns="http://www.w3.org/2000/svg">
<path d="M1.5 26.5C1.5 33.1304 4.13392 39.4893 8.82233 44.1777C13.5107 48.8661 19.8696 51.5 26.5 51.5C33.1304 51.5 39.4893 48.8661 44.1777 44.1777C48.8661 39.4893 51.5 33.1304 51.5 26.5C51.5 19.8696 48.8661 13.5107 44.1777 8.82233C39.4893 4.13392 33.1304 1.5 26.5 1.5C19.8696 1.5 13.5107 4.13392 8.82233 8.82233C4.13392 13.5107 1.5 19.8696 1.5 26.5Z" fill="white"/>
<path d="M53 26.5C53 41.1 41.1 53 26.5 53C11.9 53 0 41.1 0 26.5C0 11.9 11.9 0 26.5 0C41.1 0 53 11.9 53 26.5ZM3 26.5C3 39.45 13.55 50 26.5 50C39.45 50 50 39.45 50 26.5C50 13.55 39.45 3 26.5 3C13.55 3 3 13.55 3 26.5Z" fill="#444B54"/>
<path d="M33.5 24C33.5 24.4 33.35 24.75 33.05 25.05L28.05 30.05C27.45 30.65 26.5 30.65 25.95 30.05L20.95 25.05C20.35 24.45 20.35 23.5 20.95 22.95C21.55 22.35 22.5 22.35 23.05 22.95L27 26.9L30.95 22.95C31.55 22.35 32.5 22.35 33.05 22.95C33.35 23.25 33.5 23.6 33.5 24Z" fill="#444B54"/>
</svg>
