<svg width="114" height="113" viewBox="0 0 114 113" fill="none" xmlns="http://www.w3.org/2000/svg">
<path d="M17.6275 0C14.3824 0 11.7517 2.3715 11.7517 5.29688V65.3281C11.7517 68.2535 14.3824 70.625 17.6275 70.625H50.113L61.2909 80.7015C61.6581 81.0326 62.1562 81.2187 62.6756 81.2188C63.1951 81.2187 63.6932 81.0326 64.0604 80.7015L75.2383 70.625H107.724C110.969 70.625 113.6 68.2535 113.6 65.3281V5.29688C113.6 2.3715 110.969 0 107.724 0H17.6275ZM17.6275 3.53125H107.724C108.805 3.53125 109.682 4.32176 109.682 5.29688V14.125H78.4517C75.468 8.73589 69.3608 5.33067 62.6795 5.33067C55.9981 5.33067 49.891 8.73591 46.9073 14.125H15.6689V5.29688C15.6689 4.32176 16.5458 3.53125 17.6275 3.53125ZM19.5861 7.0625V10.5938H23.5034V7.0625H19.5861ZM27.4206 7.0625V10.5938H31.3378V7.0625H27.4206ZM35.2551 7.0625V10.5938H39.1723V7.0625H35.2551ZM62.274 8.83503C65.9779 8.73716 69.5681 9.99503 72.2266 12.322C74.8851 14.6491 76.3855 17.8471 76.3859 21.1875C76.5453 26.7949 77.6627 32.3467 79.6988 37.6471C77.8701 38.0327 76.018 38.3217 74.1519 38.5127C75.6024 36.5106 76.3784 34.1725 76.386 31.7812V26.4844C76.386 25.5093 75.5091 24.7188 74.4274 24.7188C60.1451 24.7188 58.7937 21.1875 58.7584 21.1875C58.7584 20.2124 57.8815 19.4219 56.7998 19.4219C55.7181 19.4219 54.8412 20.2124 54.8412 21.1875C54.9093 22.1415 54.5185 23.0758 53.7686 23.7518C53.0187 24.4278 51.9823 24.7801 50.924 24.7188C49.8423 24.7188 48.9654 25.5093 48.9654 26.4844V31.7812C48.9699 34.1688 49.7404 36.5042 51.1841 38.5058C49.3234 38.3161 47.4765 38.0294 45.6525 37.6471C47.6896 32.3469 48.8071 26.795 48.9654 21.1875C48.9663 14.5032 54.8623 9.03085 62.274 8.83503ZM15.6689 17.6562H45.5072C45.2081 18.8141 45.0541 19.9986 45.0481 21.1875C44.8265 27.0025 43.5498 32.7456 41.2686 38.1885C41.0695 38.6399 41.0854 39.1453 41.3127 39.5858C41.54 40.0262 41.9585 40.3628 42.4698 40.5163C46.7261 41.6458 51.1318 42.2536 55.568 42.3233C55.967 42.542 56.3782 42.7423 56.7998 42.9233V44.5269L42.6152 47.7236C41.7426 47.92 41.1305 48.6268 41.1309 49.4375V63.5625C41.1309 64.5376 42.0078 65.3281 43.0895 65.3281H82.2618C83.3435 65.3281 84.2204 64.5376 84.2204 63.5625V49.4375C84.2209 48.6268 83.6087 47.9199 82.7362 47.7236L68.5515 44.5269V42.9302C68.9758 42.7483 69.3895 42.5469 69.7909 42.3267C74.2248 42.2551 78.6278 41.6462 82.8815 40.5163C83.3928 40.3628 83.8113 40.0262 84.0386 39.5858C84.2659 39.1453 84.2818 38.6399 84.0827 38.1885C81.8016 32.7456 80.5248 27.0025 80.3032 21.1875C80.2984 19.9988 80.1457 18.8143 79.8479 17.6562H109.682V65.3281C109.682 66.3032 108.805 67.0937 107.724 67.0937H74.4273C73.9079 67.0938 73.4098 67.2799 73.0425 67.611L62.6756 76.9564L52.3088 67.611C51.9415 67.2799 51.4434 67.0938 50.924 67.0937H17.6275C16.5458 67.0937 15.6689 66.3032 15.6689 65.3281V17.6562ZM19.5861 21.1875V24.7188H23.5034V21.1875H19.5861ZM27.4206 21.1875V24.7188H39.1723V21.1875H27.4206ZM86.179 21.1875V24.7188H90.0962V21.1875H86.179ZM94.0135 21.1875V24.7188H105.765V21.1875H94.0135ZM57.584 25.1188C59.9344 26.6372 64.3346 28.0334 72.4687 28.2259V31.7812C72.4687 36.6569 68.0842 40.6094 62.6756 40.6094C57.2671 40.6094 52.8826 36.6569 52.8826 31.7812V28.0259C54.8042 27.634 56.4865 26.5938 57.584 25.1188ZM19.5861 28.25V31.7812H39.1723V28.25H19.5861ZM86.179 28.25V31.7812H105.765V28.25H86.179ZM19.5861 35.3125V38.8438H39.1723V35.3125H19.5861ZM86.179 35.3125V38.8438H105.765V35.3125H86.179ZM60.717 43.9992C61.3653 44.0885 62.0199 44.1357 62.6756 44.1406C63.3313 44.1369 63.9859 44.0908 64.6343 44.0027V45.9063C64.6338 46.717 65.2459 47.4238 66.1185 47.6202L70.5101 48.6099V51.2031C70.5101 52.1783 69.6332 52.9688 68.5515 52.9688H56.7998C55.7181 52.9688 54.8412 52.1783 54.8412 51.2031V48.6099L59.2328 47.6202C60.1054 47.4238 60.7175 46.717 60.717 45.9063V43.9992ZM50.924 49.4927V51.2031C50.924 54.1285 53.5547 56.5 56.7998 56.5H68.5515C71.7966 56.5 74.4273 54.1285 74.4273 51.2031V49.4927L80.3032 50.8169V61.7969H45.0481V50.8169L50.924 49.4927ZM19.5861 60.0312V63.5625H23.5034V60.0312H19.5861ZM27.4206 60.0312V63.5625H37.2137V60.0312H27.4206ZM88.1376 60.0312V63.5625H92.0549V60.0312H88.1376ZM95.9721 60.0312V63.5625H105.765V60.0312H95.9721ZM41.1309 81.2188C33.2141 81.2188 23.3899 86.3334 18.9396 88.9054L17.4707 85.819C17.1615 85.1698 16.4527 84.7493 15.6689 84.75H1.95861C0.876911 84.75 0 85.5405 0 86.5156V111.234C0 112.209 0.876911 113 1.95861 113H27.4206C28.0796 113.001 28.6947 112.702 29.0576 112.207C29.4204 111.711 29.4824 111.084 29.2224 110.538L28.3463 108.693L31.6171 107.707C37.9258 107.82 65.8019 111.184 66.0879 111.217C66.1741 111.228 66.261 111.234 66.348 111.234C66.7477 111.235 67.1377 111.124 67.465 110.917L92.774 95.0265C93.1229 94.8098 93.3835 94.4961 93.5162 94.1333C94.3625 92.3715 94.1804 90.3455 93.0303 88.7296C91.7256 87.3239 89.7959 86.5129 87.7627 86.5156C87.407 86.5153 87.0578 86.6023 86.7528 86.7674L68.211 96.8542L63.9189 94.9058C64.4209 93.9389 64.6659 92.8797 64.6342 91.8125C64.6352 91.2878 64.3773 90.7899 63.9304 90.4538C63.427 90.0795 51.5115 81.2188 41.1309 81.2188ZM41.1309 84.75C48.7068 84.75 57.9008 90.7078 60.6252 92.5987C60.3754 94.2917 58.686 95.5039 56.7998 95.3438C53.0021 95.0799 49.3369 93.9683 46.1346 92.1091L43.9617 95.0472C47.8046 97.2973 52.2265 98.6158 56.7998 98.875C58.4048 98.917 59.9833 98.5005 61.31 97.6853L67.4154 100.451C68.0177 100.723 68.7329 100.697 69.3089 100.382L88.2295 90.0883C88.8474 90.1423 89.4237 90.3929 89.8553 90.7952C90.1391 91.3242 90.1789 91.933 89.9662 92.4884L65.8508 107.627C61.1246 107.062 36.7445 104.172 31.3034 104.172C31.0918 104.17 30.8813 104.2 30.6799 104.258L26.7971 105.434L20.5081 92.2056C24.1447 90.0565 33.8157 84.75 41.1309 84.75ZM3.91723 88.2812H8.23613C8.9945 91.2002 11.3564 100.93 11.679 109.469H3.91723V88.2812ZM12.1687 88.2812H14.3798L24.4483 109.469H15.5083C15.067 102.333 13.9498 95.245 12.1687 88.2812Z" fill="white"/>
</svg>
