<svg width="114" height="114" viewBox="0 0 114 114" fill="none" xmlns="http://www.w3.org/2000/svg">
<path d="M56.9999 2.36988e-06C55.8776 2.36988e-06 54.8825 0.693358 54.5356 1.71718L49.3882 16.9116H32.7316C31.6092 16.9116 30.6142 17.6045 30.2672 18.6283C29.9206 19.6521 30.3004 20.774 31.2085 21.4069L44.6846 30.7975L39.5373 45.992C39.1906 47.016 39.5704 48.1377 40.4785 48.7706C41.3866 49.4033 42.6162 49.4033 43.5243 48.7706L56.9999 39.3795L70.4756 48.7701C70.9298 49.0865 71.4643 49.2448 71.9988 49.2448C73.7471 49.2448 75.0093 47.6057 74.4626 45.992L69.3158 30.7975L82.7914 21.4069C83.6995 20.774 84.0796 19.6521 83.7327 18.6283C83.3857 17.6045 82.3912 16.9111 81.2688 16.9111H64.6117L59.4643 1.71718C59.1174 0.693355 58.1223 2.36988e-06 56.9999 2.36988e-06ZM28.5002 2.48501C27.0693 2.48501 25.9093 3.59758 25.9093 4.97001C25.9093 6.34244 27.0693 7.45501 28.5002 7.45501C29.9311 7.45501 31.0911 6.34244 31.0911 4.97001C31.0911 3.59758 29.9311 2.48501 28.5002 2.48501ZM94.5678 2.48501C90.9963 2.48501 88.0906 5.27194 88.0906 8.69751C88.0906 12.1231 90.9963 14.91 94.5678 14.91C98.1394 14.91 101.045 12.1231 101.045 8.69751C101.045 5.27194 98.1394 2.48501 94.5678 2.48501ZM94.5678 7.45501C95.2821 7.45501 95.8633 8.0124 95.8633 8.69751C95.8633 9.38263 95.2821 9.94001 94.5678 9.94001C93.8535 9.94001 93.2724 9.38263 93.2724 8.69751C93.2724 8.0124 93.8535 7.45501 94.5678 7.45501ZM56.9999 10.5263L60.2649 20.1644C60.6118 21.1883 61.6069 21.8816 62.7293 21.8816H73.2947L64.7468 27.8379C63.8387 28.4708 63.4587 29.5922 63.8056 30.616L67.0705 40.2541L58.5231 34.2974C57.6147 33.6647 56.3857 33.6647 55.4773 34.2974L46.9299 40.2541L50.1948 30.6165C50.5415 29.5924 50.1617 28.4708 49.2536 27.8379L40.7057 21.8816H51.2711C52.3935 21.8816 53.3881 21.1883 53.735 20.1644L56.9999 10.5263ZM7.77306 17.395C6.34215 17.395 5.18217 18.5076 5.18217 19.88C5.18217 21.2525 6.34215 22.365 7.77306 22.365C9.20397 22.365 10.364 21.2525 10.364 19.88C10.364 18.5076 9.20397 17.395 7.77306 17.395ZM106.227 17.395C104.796 17.395 103.636 18.5076 103.636 19.88C103.636 21.2525 104.796 22.365 106.227 22.365C107.658 22.365 108.818 21.2525 108.818 19.88C108.818 18.5076 107.658 17.395 106.227 17.395ZM18.3694 23.8483C17.247 23.8483 16.2519 24.5416 15.905 25.5654L12.762 34.8429H2.59128C1.46891 34.8429 0.473824 35.5363 0.126904 36.5601C-0.219757 37.5842 0.160017 38.7058 1.06812 39.3388L9.29673 45.0727L6.15376 54.3502C5.8071 55.374 6.18687 56.4954 7.09498 57.1284C8.00282 57.7608 9.23242 57.7608 10.1408 57.1284L18.3694 51.3944L26.5975 57.1284C27.5046 57.7606 28.7352 57.7613 29.6433 57.1284C30.5514 56.4954 30.9317 55.374 30.585 54.3502L27.4416 45.0727L35.6702 39.3388C36.5783 38.7061 36.958 37.5842 36.6114 36.5601C36.2645 35.5363 35.2699 34.8429 34.1475 34.8429H23.9762L20.8333 25.5654C20.4863 24.5416 19.4918 23.8483 18.3694 23.8483ZM95.6305 23.8483C94.5081 23.8483 93.5135 24.5416 93.1666 25.5654L90.0237 34.8429H79.8524C78.73 34.8429 77.7354 35.5363 77.3885 36.5601C77.0416 37.5842 77.4216 38.7058 78.3297 39.3388L86.5583 45.0727L83.4149 54.3502C83.0679 55.374 83.4485 56.4954 84.3566 57.1284C85.265 57.7613 86.4946 57.7608 87.4024 57.1284L95.6305 51.3944L103.859 57.1284C104.767 57.7608 105.997 57.7611 106.905 57.1284C107.813 56.4954 108.193 55.374 107.846 54.3502L104.703 45.0727L112.932 39.3388C113.84 38.7058 114.22 37.5842 113.873 36.5601C113.526 35.5363 112.531 34.8429 111.409 34.8429H101.238L98.0949 25.5654C97.748 24.5416 96.7529 23.8483 95.6305 23.8483ZM18.3689 34.3746L19.6294 38.0958C19.9763 39.1196 20.9714 39.813 22.0938 39.813H26.1729L22.8726 42.1126C21.9645 42.7455 21.5847 43.8671 21.9314 44.8912L23.1924 48.6119L19.892 46.3123C18.9839 45.6796 17.7543 45.6796 16.8462 46.3123L13.5459 48.6119L14.8064 44.8912C15.1531 43.8671 14.7733 42.7455 13.8652 42.1126L10.5648 39.813H14.6445C15.7669 39.813 16.7614 39.1196 17.1084 38.0958L18.3689 34.3746ZM95.631 34.3746L96.8915 38.0958C97.2385 39.1196 98.233 39.813 99.3554 39.813H103.435L100.135 42.1126C99.2263 42.7457 98.8466 43.8674 99.1935 44.8912L100.454 48.6119L97.1537 46.3123C96.245 45.6796 95.0162 45.6796 94.1078 46.3123L90.808 48.6119L92.0685 44.8912C92.4155 43.8671 92.0354 42.7455 91.1273 42.1126L87.827 39.813H91.9061C93.0285 39.813 94.0236 39.1196 94.3705 38.0958L95.631 34.3746ZM56.9999 49.7001C48.3907 49.7001 41.3863 56.4179 41.3863 64.6756C41.3863 69.382 43.6637 73.5859 47.2148 76.3333C32.026 81.6465 24.3612 98.0187 30.454 112.448C30.8501 113.386 31.8001 114 32.8556 114H81.1443C82.1996 114 83.1498 113.386 83.5459 112.447C89.6397 98.015 81.9708 81.6455 66.7851 76.3333C70.3362 73.5859 72.6136 69.382 72.6136 64.6756C72.6136 56.4179 65.6092 49.7001 56.9999 49.7001ZM56.9999 54.6701C62.752 54.6701 67.4318 59.1586 67.4318 64.6756C67.4318 70.1926 62.752 74.6811 56.9999 74.6811C51.2477 74.6811 46.5681 70.1926 46.5681 64.6756C46.5681 59.1586 51.2477 54.6701 56.9999 54.6701ZM80.3179 64.6101C78.887 64.6101 77.7271 65.7226 77.7271 67.0951C77.7271 68.4675 78.887 69.5801 80.3179 69.5801C81.7489 69.5801 82.9088 68.4675 82.9088 67.0951C82.9088 65.7226 81.7489 64.6101 80.3179 64.6101ZM99.7496 64.6101C94.7495 64.6101 90.6815 68.5118 90.6815 73.3076C90.6815 78.1034 94.7495 82.0051 99.7496 82.0051C104.75 82.0051 108.818 78.1034 108.818 73.3076C108.818 68.5118 104.75 64.6101 99.7496 64.6101ZM25.9093 67.0951C24.4784 67.0951 23.3184 68.2077 23.3184 69.5801C23.3184 70.9525 24.4784 72.0651 25.9093 72.0651C27.3402 72.0651 28.5002 70.9525 28.5002 69.5801C28.5002 68.2077 27.3402 67.0951 25.9093 67.0951ZM99.7496 69.5801C101.893 69.5801 103.636 71.2522 103.636 73.3076C103.636 75.3629 101.893 77.0351 99.7496 77.0351C97.6067 77.0351 95.8633 75.3629 95.8633 73.3076C95.8633 71.2522 97.6067 69.5801 99.7496 69.5801ZM15.5457 72.0651C11.2599 72.0651 7.77306 75.4094 7.77306 79.5201C7.77306 83.6308 11.2599 86.9751 15.5457 86.9751C19.8316 86.9751 23.3184 83.6308 23.3184 79.5201C23.3184 75.4094 19.8316 72.0651 15.5457 72.0651ZM15.5457 77.0351C16.9743 77.0351 18.1366 78.1499 18.1366 79.5201C18.1366 80.8903 16.9743 82.0051 15.5457 82.0051C14.1171 82.0051 12.9548 80.8903 12.9548 79.5201C12.9548 78.1499 14.1171 77.0351 15.5457 77.0351ZM53.0387 79.9734L48.0831 91.8558C47.6981 92.7787 47.9238 93.8329 48.6565 94.5359L55.1681 100.781C56.1793 101.751 57.8205 101.752 58.8323 100.781L65.3434 94.5359C66.0761 93.8329 66.302 92.7787 65.9173 91.8558L60.9617 79.9734C72.0144 81.7845 80.4546 91.0373 80.4546 102.147C80.4543 104.5 80.0771 106.809 79.3307 109.03H72.6136V102.147C72.6136 100.775 71.4534 99.6617 70.0227 99.6617C68.592 99.6617 67.4318 100.775 67.4318 102.147V109.03H46.5681V102.147C46.5681 100.775 45.4081 99.6617 43.9772 99.6617C42.5462 99.6617 41.3863 100.775 41.3863 102.147V109.03H34.6692C30.2771 95.9584 39.0959 82.2579 53.0387 79.9734ZM56.9999 83.8572L60.4708 92.1805L56.9999 95.51L53.5286 92.1805L56.9999 83.8572ZM98.4542 91.9451C97.0233 91.9451 95.8633 93.0577 95.8633 94.4301C95.8633 95.8025 97.0233 96.9151 98.4542 96.9151C99.8851 96.9151 101.045 95.8025 101.045 94.4301C101.045 93.0577 99.8851 91.9451 98.4542 91.9451ZM15.5457 96.9151C14.1148 96.9151 12.9548 98.0277 12.9548 99.4001C12.9548 100.773 14.1148 101.885 15.5457 101.885C16.9766 101.885 18.1366 100.773 18.1366 99.4001C18.1366 98.0277 16.9766 96.9151 15.5457 96.9151Z" fill="white"/>
</svg>
