<svg width="113" height="121" viewBox="0 0 113 121" fill="none" xmlns="http://www.w3.org/2000/svg">
<path d="M42.3054 0V8.34483H51.2118V16.873C22.5961 19.0075 0 41.4944 0 68.8448C0 97.6007 24.974 121 55.665 121C86.356 121 111.33 97.6007 111.33 68.8448C111.33 41.4944 88.7339 19.0075 60.1182 16.873V8.34483H69.0246V0H42.3054ZM100.397 15.125L93.3172 21.7789C98.0821 25.0959 102.155 29.2502 105.45 34.0068L113 26.9333L100.397 15.125ZM55.665 25.0345C81.543 25.0345 102.424 44.5985 102.424 68.8448C102.424 93.0912 81.543 112.655 55.665 112.655C29.787 112.655 8.9064 93.0912 8.9064 68.8448C8.9064 44.5985 29.787 25.0345 55.665 25.0345ZM52.3251 31.2931L53.4384 39.6379H57.8916L59.0049 31.2931H52.3251ZM81.6449 40.078L76.1306 46.7156L79.2835 49.6697L86.3678 44.5031L81.6449 40.078ZM28.898 40.8155L25.7494 43.7655L47.2153 66.2411C46.3249 68.7815 46.7876 71.5678 48.4599 73.7346C50.1321 75.9013 52.8112 77.1861 55.665 77.1897C60.5839 77.1897 64.5714 73.4536 64.5714 68.8448C64.5714 64.2361 60.5839 60.5 55.665 60.5C54.7192 60.5019 53.7796 60.6449 52.8818 60.9238L28.898 40.8155ZM15.5862 65.7155V71.9741L24.4926 70.931V66.7586L15.5862 65.7155ZM95.7438 65.7155L86.8374 66.7586V70.931L95.7438 71.9741V65.7155ZM32.0465 88.02L24.9623 93.1866L29.6851 97.6117L35.1994 90.9741L32.0465 88.02ZM79.2835 88.02L76.1306 90.9741L81.6449 97.6117L86.3677 93.1866L79.2835 88.02ZM53.4384 98.0517L52.3251 106.397H59.0049L57.8916 98.0517H53.4384Z" fill="white"/>
</svg>
